<?xml version="1.0" encoding="UTF-8"?>
<svg id="Layer_1" xmlns="http://www.w3.org/2000/svg" version="1.1" viewBox="0 0 500 500">
  <!-- Generator: Adobe Illustrator 29.0.1, SVG Export Plug-In . SVG Version: 2.1.0 Build 192)  -->
  <defs>
    <style>
      .st0 {
        fill-opacity: .85;
      }
    </style>
  </defs>
  <path class="st0" d="M445.32,251.81l-61.04-75.72c-20.7-25.48-29.9-33.26-61.39-33.26h-28.84v24.94h30.96c12.91,0,22.82,4.25,31.49,15.21l65.81,82.97c2.83,3.71,1.77,8.67-4.07,8.67h-116.76c-9.2,0-13.44,7.08-13.44,14.33v.71c0,20.52-16.1,42.1-41.22,42.1s-41.04-21.58-41.04-42.1v-.71c0-7.25-4.42-14.33-13.62-14.33h-116.58c-5.84,0-7.08-4.95-4.07-8.67l65.63-82.97c8.67-10.97,18.58-15.21,31.49-15.21h30.96v-24.94h-28.84c-31.49,0-40.51,7.78-61.21,33.26l-61.21,75.72c-7.78,9.55-10.08,17.51-10.08,33.61v104.73c0,36.44,18.58,54.84,55.55,54.84h306.06c37.15,0,55.55-18.4,55.55-54.84v-104.73c0-16.1-2.12-24.06-10.08-33.61ZM426.92,388.56c0,18.4-9.91,27.95-27.42,27.95H94.15c-17.69,0-27.42-9.55-27.42-27.95v-87.92h112.16c4.25,33.08,32.02,57.5,67.93,57.5s63.69-24.59,67.93-57.5h112.16v87.92Z"/>
  <path class="st0" d="M196.58,195.91c-2.48-2.83-6.37-4.25-9.73-4.25-7.43,0-12.74,5.31-12.74,12.38,0,3.89,1.42,6.72,4.07,9.38l58.38,56.26c3.54,3.54,6.72,4.6,10.26,4.6,3.72,0,6.72-1.06,10.26-4.6l58.38-56.26c2.65-2.65,4.07-5.48,4.07-9.38,0-7.08-5.48-12.38-12.91-12.38-3.36,0-7.08,1.42-9.55,4.25l-27.24,29.19-10.14,10.76,1.29-26.86V51.73c0-7.43-6.55-13.8-14.15-13.8s-13.98,6.37-13.98,13.8v157.27l1.2,26.95-10.22-10.85-27.24-29.19Z"/>
</svg>